<svg id="组_4" data-name="组 4" xmlns="http://www.w3.org/2000/svg" width="100" height="100" viewBox="0 0 100 100">
  <defs>
    <style>
      .cls-1 {
        fill: #fff;
      }

      .cls-2 {
        fill: #02b875;
        fill-rule: evenodd;
      }
    </style>
  </defs>
  <circle id="椭圆_3" data-name="椭圆 3" class="cls-1" cx="50" cy="50" r="50"/>
  <path id="check" class="cls-2" d="M390.251,401.788a2.483,2.483,0,0,0-3.507-.125l-0.246.26-10.48,11.009-4.694,4.932c-0.026.031-.053,0.062-0.082,0.092a1.155,1.155,0,0,1-.088.084l-0.01.01-0.01.008a1.369,1.369,0,0,1-1.84-.04l-0.012-.011-0.051-.051-0.051-.056-0.009-.013-4.725-4.959-1.023-1.075a2.489,2.489,0,0,0-3.646,0,2.8,2.8,0,0,0-.058,3.76l0.121,0.128,9.3,9.765,0.077,0.083,0.026,0.025a1.374,1.374,0,0,0,1.874.03l0.167-.176,2.553-2.68v0l0.743-.778,6.523-6.849c0.019-.023.038-0.044,0.058-0.065s0.042-.041.064-0.062l0.94-.99,0.008,0.007,7.865-8.242,0.4-.426A2.8,2.8,0,0,0,390.251,401.788Z" transform="translate(-325 -371)"/>
</svg>
